<?xml version="1.0" encoding="UTF-8" standalone="no"?>
<!DOCTYPE svg PUBLIC "-//W3C//DTD SVG 1.0//EN" "http://www.w3.org/TR/2001/REC-SVG-20010904/DTD/svg10.dtd">
<!-- Generated by Microsoft Visio 11.0, SVG Export, v1.0 bitwrench-thick-teal.svg Page-1 -->
<svg xmlns="http://www.w3.org/2000/svg" xmlns:xlink="http://www.w3.org/1999/xlink" xmlns:ev="http://www.w3.org/2001/xml-events"
		xmlns:v="http://schemas.microsoft.com/visio/2003/SVGExtensions/" width="1.00667in" height="1.00667in"
		viewBox="0 0 72.48 72.48" xml:space="preserve" color-interpolation-filters="sRGB" class="st2">
	<v:documentProperties v:langID="1033" v:viewMarkup="false"/>

	<style type="text/css">
	<![CDATA[
		.st1 {fill:#006666;stroke:none;stroke-linecap:round;stroke-linejoin:round;stroke-width:0.24}
		.st2 {fill:none;fill-rule:evenodd;font-size:12px;overflow:visible;stroke-linecap:square;stroke-miterlimit:3}
	]]>
	</style>

	<g v:mID="0" v:index="1" v:groupContext="foregroundPage">
		<title>Page-1</title>
		<v:pageProperties v:drawingScale="1" v:pageScale="1" v:drawingUnits="0" v:shadowOffsetX="9" v:shadowOffsetY="-9"/>
		<g id="group171-1" transform="translate(0.24,-0.24)" v:mID="171" v:groupContext="group">
			<title>Sheet.171</title>
			<g id="shape168-2" v:mID="168" v:groupContext="shape" transform="translate(51.1875,0)">
				<title>Sheet.168</title>
				<path d="M0 0.48 L7.8 0.48 A7.80469 6.75 0 0 1 15.61 7.23 L15.61 27.48 A5.20313 6.75 -180 0 0 20.81 34.23 L20.81
							 38.73 A5.20313 6.75 -180 0 0 15.61 45.48 L15.61 65.73 A7.80469 6.75 0 0 1 7.8 72.48 L0 72.48 L0 67.98
							 A7.80469 2.25 -180 0 0 7.8 65.73 L7.8 40.98 A5.20312 4.5 0 0 1 13.01 36.48 A5.20312 4.5 0 0 1 7.8 31.98
							 L7.8 7.23 A7.80469 2.25 -180 0 0 0 4.98 L0 0.48 Z" class="st1"/>
			</g>
			<g id="shape169-4" v:mID="169" v:groupContext="shape" transform="translate(20.25,0) scale(-1,1)">
				<title>Sheet.169</title>
				<path d="M0 0.48 L7.59 0.48 A7.59375 6.75 0 0 1 15.19 7.23 L15.19 27.48 A5.0625 6.75 -180 0 0 20.25 34.23 L20.25
							 38.73 A5.0625 6.75 -180 0 0 15.19 45.48 L15.19 65.73 A7.59375 6.75 0 0 1 7.59 72.48 L0 72.48 L0 67.98
							 A7.59375 2.25 -180 0 0 7.59 65.73 L7.59 40.98 A5.0625 4.5 0 0 1 12.66 36.48 A5.0625 4.5 0 0 1 7.59 31.98
							 L7.59 7.23 A7.59375 2.25 -180 0 0 0 4.98 L0 0.48 Z" class="st1"/>
			</g>
			<g id="shape170-6" v:mID="170" v:groupContext="shape" transform="translate(23.8109,-2.01556)">
				<title>Sheet.170</title>
				<path d="M18.25 27.28 A12.1891 12.1891 -45 0 0 23.78 12.94 L15.74 21.57 L8.58 20.57 L7.08 13.5 L15.13 4.87 A12.1891
							 12.1891 -45 0 0 3.88 25.61 A12.1891 12.1891 -45 0 0 5.98 27.19 L5.98 51.34 A11.4758 11.4758 -180 0 0
							 0.69 61 A11.4758 11.4758 -180 0 0 23.65 61 A11.4758 11.4758 -180 0 0 18.25 51.27 L18.25 27.28 ZM18.58
							 57.31 L18.58 64.7 L12.17 68.4 L5.76 64.7 L5.76 57.31 L12.17 53.61 L18.58 57.31 Z" class="st1"/>
			</g>
		</g>
	</g>
</svg>
