<?xml version="1.0" encoding="UTF-8" standalone="no"?>
<!DOCTYPE svg PUBLIC "-//W3C//DTD SVG 1.0//EN" "http://www.w3.org/TR/2001/REC-SVG-20010904/DTD/svg10.dtd">
<!-- Generated by Microsoft Visio 11.0, SVG Export, v1.0 bitwrench-thick-logo.svg Page-1 -->
<svg xmlns="http://www.w3.org/2000/svg" xmlns:xlink="http://www.w3.org/1999/xlink" xmlns:ev="http://www.w3.org/2001/xml-events"
		xmlns:v="http://schemas.microsoft.com/visio/2003/SVGExtensions/" width="4.2885in" height="1.14583in"
		viewBox="0 0 308.772 82.5" xml:space="preserve" color-interpolation-filters="sRGB" class="st5">
	<v:documentProperties v:langID="1033" v:viewMarkup="false"/>

	<style type="text/css">
	<![CDATA[
		.st1 {fill:#006666;stroke:none;stroke-linecap:round;stroke-linejoin:round;stroke-width:0.24}
		.st2 {fill:none;stroke:none;stroke-linecap:round;stroke-linejoin:round;stroke-width:0.75}
		.st3 {fill:#000000;font-family:Calibri;font-size:4.99999em}
		.st4 {fill:#006666;font-family:Calibri;font-size:4.99999em}
		.st5 {fill:none;fill-rule:evenodd;font-size:12px;overflow:visible;stroke-linecap:square;stroke-miterlimit:3}
	]]>
	</style>

	<g v:mID="0" v:index="1" v:groupContext="foregroundPage">
		<title>Page-1</title>
		<v:pageProperties v:drawingScale="1" v:pageScale="1" v:drawingUnits="0" v:shadowOffsetX="9" v:shadowOffsetY="-9"/>
		<g id="group114-1" transform="translate(0.24,-23.25)" v:mID="114" v:groupContext="group">
			<title>Sheet.114</title>
			<g id="shape115-2" v:mID="115" v:groupContext="shape" transform="translate(28.793,0)">
				<title>Sheet.115</title>
				<path d="M0 42 L4.39 42 A4.39014 3.79688 0 0 1 8.78 45.8 L8.78 57.19 A2.92676 3.79688 -180 0 0 11.71 60.98 L11.71
							 63.52 A2.92676 3.79688 -180 0 0 8.78 67.31 L8.78 78.7 A4.39014 3.79688 0 0 1 4.39 82.5 L0 82.5 L0 79.97
							 A4.39014 1.26562 -180 0 0 4.39 78.7 L4.39 64.78 A2.92676 2.53125 0 0 1 7.32 62.25 A2.92676 2.53125 0
							 0 1 4.39 59.72 L4.39 45.8 A4.39014 1.26562 -180 0 0 0 44.53 L0 42 Z" class="st1"/>
			</g>
			<g id="shape116-4" v:mID="116" v:groupContext="shape" transform="translate(11.3906,0) scale(-1,1)">
				<title>Sheet.116</title>
				<path d="M0 42 L4.27 42 A4.27148 3.79688 0 0 1 8.54 45.8 L8.54 57.19 A2.84766 3.79688 -180 0 0 11.39 60.98 L11.39
							 63.52 A2.84766 3.79688 -180 0 0 8.54 67.31 L8.54 78.7 A4.27148 3.79688 0 0 1 4.27 82.5 L0 82.5 L0 79.97
							 A4.27148 1.26562 -180 0 0 4.27 78.7 L4.27 64.78 A2.84766 2.53125 0 0 1 7.12 62.25 A2.84766 2.53125 0
							 0 1 4.27 59.72 L4.27 45.8 A4.27148 1.26562 -180 0 0 -0 44.53 L0 42 Z" class="st1"/>
			</g>
			<g id="shape117-6" v:mID="117" v:groupContext="shape" transform="translate(13.3936,-1.13375)">
				<title>Sheet.117</title>
				<path d="M10.26 57.07 A6.85638 6.85638 -45 0 0 13.38 49.01 L8.85 53.86 L4.83 53.3 L3.98 49.32 L8.51 44.47 A6.85638
							 6.85638 -45 0 0 2.18 56.14 A6.85638 6.85638 -45 0 0 3.36 57.02 L3.36 70.61 A6.45516 6.45516 -180 0 0
							 0.39 76.04 A6.45516 6.45516 -180 0 0 13.3 76.04 A6.45516 6.45516 -180 0 0 10.26 70.57 L10.26 57.07 ZM10.45
							 73.96 L10.45 78.13 L6.85 80.21 L3.24 78.13 L3.24 73.96 L6.85 71.88 L10.45 73.96 Z" class="st1"/>
			</g>
		</g>
		<g id="group118-8" transform="translate(53.772,-0.75)" v:mID="118" v:groupContext="group">
			<title>Sheet.118</title>
			<g id="shape119-9" v:mID="119" v:groupContext="shape">
				<title>Sheet.119</title>
				<desc>bit</desc>
				<v:textBlock v:margins="rect(2,2,2,2)"/>
				<v:textRect cx="37.125" cy="42" width="74.25" height="81"/>
				<rect x="0" y="1.5" width="74.25" height="81" class="st2"/>
				<text x="2" y="60" class="st3" v:langID="1033"><v:paragraph/><v:tabList/>bit</text>			</g>
			<g id="shape120-12" v:mID="120" v:groupContext="shape" transform="translate(67.5,0)">
				<title>Sheet.120</title>
				<desc>wrench</desc>
				<v:textBlock v:margins="rect(2,2,2,2)"/>
				<v:textRect cx="93.375" cy="42" width="186.75" height="81"/>
				<rect x="0" y="1.5" width="186.75" height="81" class="st2"/>
				<text x="2" y="60" class="st4" v:langID="1033"><v:paragraph/><v:tabList/>wrench</text>			</g>
		</g>
	</g>
</svg>
