<?xml version="1.0" encoding="UTF-8" standalone="no"?>
<svg xmlns="http://www.w3.org/2000/svg" width="40" height="40" viewBox="0 21 40 42">
	<style type="text/css">
		.st1 {fill:#006666;stroke:none;stroke-linecap:round;stroke-linejoin:round;stroke-width:0.24}
	</style>
	<g transform="translate(0.24,-23.25)">
		<g transform="translate(28.793,0)">
			<path d="M0 42 L4.39 42 A4.39014 3.79688 0 0 1 8.78 45.8 L8.78 57.19 A2.92676 3.79688 -180 0 0 11.71 60.98 L11.71
						 63.52 A2.92676 3.79688 -180 0 0 8.78 67.31 L8.78 78.7 A4.39014 3.79688 0 0 1 4.39 82.5 L0 82.5 L0 79.97
						 A4.39014 1.26562 -180 0 0 4.39 78.7 L4.39 64.78 A2.92676 2.53125 0 0 1 7.32 62.25 A2.92676 2.53125 0
						 0 1 4.39 59.72 L4.39 45.8 A4.39014 1.26562 -180 0 0 0 44.53 L0 42 Z" class="st1"/>
		</g>
		<g transform="translate(11.3906,0) scale(-1,1)">
			<path d="M0 42 L4.27 42 A4.27148 3.79688 0 0 1 8.54 45.8 L8.54 57.19 A2.84766 3.79688 -180 0 0 11.39 60.98 L11.39
						 63.52 A2.84766 3.79688 -180 0 0 8.54 67.31 L8.54 78.7 A4.27148 3.79688 0 0 1 4.27 82.5 L0 82.5 L0 79.97
						 A4.27148 1.26562 -180 0 0 4.27 78.7 L4.27 64.78 A2.84766 2.53125 0 0 1 7.12 62.25 A2.84766 2.53125 0
						 0 1 4.27 59.72 L4.27 45.8 A4.27148 1.26562 -180 0 0 -0 44.53 L0 42 Z" class="st1"/>
		</g>
		<g transform="translate(13.3936,-1.13375)">
			<path d="M10.26 57.07 A6.85638 6.85638 -45 0 0 13.38 49.01 L8.85 53.86 L4.83 53.3 L3.98 49.32 L8.51 44.47 A6.85638
						 6.85638 -45 0 0 2.18 56.14 A6.85638 6.85638 -45 0 0 3.36 57.02 L3.36 70.61 A6.45516 6.45516 -180 0 0
						 0.39 76.04 A6.45516 6.45516 -180 0 0 13.3 76.04 A6.45516 6.45516 -180 0 0 10.26 70.57 L10.26 57.07 ZM10.45
						 73.96 L10.45 78.13 L6.85 80.21 L3.24 78.13 L3.24 73.96 L6.85 71.88 L10.45 73.96 Z" class="st1"/>
		</g>
	</g>
</svg>
